<svg xmlns="http://www.w3.org/2000/svg" xmlns:oryx="http://oryx-editor.org" id="_7770D923-360D-4BDE-9D63-DB480A79B1FA" width="763" height="363" xmlns:xlink="http://www.w3.org/1999/xlink" xmlns:svg="http://www.w3.org/2000/svg"><defs><marker id="_12E3B023-9D7A-47EB-A839-B300BEFA18DEstart" refX="1" refY="5" markerUnits="userSpaceOnUse" markerWidth="17" markerHeight="11" orient="auto" fill="#000000" stroke="#000000"> 	  		<path id="_12E3B023-9D7A-47EB-A839-B300BEFA18DEconditional" d="M 0 5 L 8 0 L 16 5 L 8 10 L 0 5" fill="white" stroke="#000000" stroke-width="1" display="none"/> 			<path id="_12E3B023-9D7A-47EB-A839-B300BEFA18DEdefault" d="M 5 0 L 11 10" fill="white" stroke="#000000" stroke-width="1" display="none"/> 	  	</marker><marker id="_12E3B023-9D7A-47EB-A839-B300BEFA18DEend" refX="15" refY="6" markerUnits="userSpaceOnUse" markerWidth="15" markerHeight="12" orient="auto" fill="#000000" stroke="#000000"> 	  		<path id="_12E3B023-9D7A-47EB-A839-B300BEFA18DEframe2" d="M 0 1 L 15 6 L 0 11z" fill="#000000" stroke="#000000" stroke-linejoin="round" stroke-width="2"/> 	  	</marker><marker id="_8F756040-06DE-4CDD-AA4C-FBB189A3E610start" refX="1" refY="5" markerUnits="userSpaceOnUse" markerWidth="17" markerHeight="11" orient="auto" fill="#000000" stroke="#000000"> 	  		<path id="_8F756040-06DE-4CDD-AA4C-FBB189A3E610conditional" d="M 0 5 L 8 0 L 16 5 L 8 10 L 0 5" fill="white" stroke="#000000" stroke-width="1" display="none"/> 			<path id="_8F756040-06DE-4CDD-AA4C-FBB189A3E610default" d="M 5 0 L 11 10" fill="white" stroke="#000000" stroke-width="1" display="none"/> 	  	</marker><marker id="_8F756040-06DE-4CDD-AA4C-FBB189A3E610end" refX="15" refY="6" markerUnits="userSpaceOnUse" markerWidth="15" markerHeight="12" orient="auto" fill="#000000" stroke="#000000"> 	  		<path id="_8F756040-06DE-4CDD-AA4C-FBB189A3E610frame2" d="M 0 1 L 15 6 L 0 11z" fill="#000000" stroke="#000000" stroke-linejoin="round" stroke-width="2"/> 	  	</marker></defs><g stroke="none" font-family="Verdana, sans-serif" font-size-adjust="none" font-style="normal" font-variant="normal" font-weight="normal" line-heigth="normal" font-size="12"><g class="stencils" transform="translate(15, 16)"><g class="me"/><g class="children"><g id="_165CC92F-7662-4763-9702-7EB3BA6480FE" bpmn2nodeid="_9ED49B5C-26B4-4EE9-811D-7BCD059E802E"><g class="stencils" transform="translate(325, 243)"><g class="me"><g pointer-events="fill" id="_165CC92F-7662-4763-9702-7EB3BA6480FE">        <defs id="_165CC92F-7662-4763-9702-7EB3BA6480FE__165CC92F-7662-4763-9702-7EB3BA6480FE_5"> 		<radialGradient id="_165CC92F-7662-4763-9702-7EB3BA6480FEbackground" cx="10%" cy="10%" r="100%" fx="10%" fy="10%"> 			<stop offset="0%" stop-color="#ffffff" stop-opacity="1" id="_165CC92F-7662-4763-9702-7EB3BA6480FE__165CC92F-7662-4763-9702-7EB3BA6480FE_6"/> 			<stop id="_165CC92F-7662-4763-9702-7EB3BA6480FEfill_el" offset="100%" stop-color="#9acd32" stop-opacity="1"/> 		</radialGradient> 	</defs> 	     <circle id="_165CC92F-7662-4763-9702-7EB3BA6480FEbg_frame" cx="15" cy="15" r="15" stroke="#000000" fill="url(#_165CC92F-7662-4763-9702-7EB3BA6480FEbackground) white" stroke-width="1" style="stroke-dasharray: 5.5, 3"/>      <circle id="_165CC92F-7662-4763-9702-7EB3BA6480FEframe" cx="15" cy="15" r="15" stroke="#000000" fill="none" stroke-width="1" display="inherit"/>  	<text font-size="11" id="_165CC92F-7662-4763-9702-7EB3BA6480FEtext_name" x="15" y="32" oryx:align="top center" stroke="black" stroke-width="0pt" letter-spacing="-0.01px" fill="#000000" text-anchor="middle" transform="rotate(0 15 32)" visibility="inherit" oryx:fontSize="11"/>   </g></g><g class="children" style="overflow:hidden"/><g class="edge"/></g><g class="controls"><g class="dockers"/><g class="magnets" transform="translate(325, 243)"><g pointer-events="all" display="none" transform="translate(7, 7)"><circle cx="8" cy="8" r="4" stroke="none" fill="red" fill-opacity="0.3"/></g></g></g></g><g id="_87BC9DEC-997D-4591-853F-35AE72FEA68D" bpmn2nodeid="_B2BEC4FF-79F7-46A1-8FDB-2C9F1FA7E658"><g class="stencils" transform="translate(461, 220)"><g class="me"><g pointer-events="fill" oryx:minimumSize="50 40" id="_87BC9DEC-997D-4591-853F-35AE72FEA68D">   	<defs id="_87BC9DEC-997D-4591-853F-35AE72FEA68D__87BC9DEC-997D-4591-853F-35AE72FEA68D_17"> 		<radialGradient id="_87BC9DEC-997D-4591-853F-35AE72FEA68Dbackground" cx="10%" cy="10%" r="100%" fx="10%" fy="10%"> 			<stop offset="0%" stop-color="#ffffff" stop-opacity="1" id="_87BC9DEC-997D-4591-853F-35AE72FEA68D__87BC9DEC-997D-4591-853F-35AE72FEA68D_18"/> 			<stop id="_87BC9DEC-997D-4591-853F-35AE72FEA68Dfill_el" offset="100%" stop-color="#fafad2" stop-opacity="1"/> 		</radialGradient> 		<radialGradient id="_87BC9DEC-997D-4591-853F-35AE72FEA68Dborderbackground" cx="10%" cy="10%" r="100%" fx="10%" fy="10%"> 			<stop offset="0%" stop-color="#ffffff" stop-opacity="1" id="_87BC9DEC-997D-4591-853F-35AE72FEA68D__87BC9DEC-997D-4591-853F-35AE72FEA68D_19"/> 			<stop id="_87BC9DEC-997D-4591-853F-35AE72FEA68Dfill_border" offset="100%" stop-color="#000000" stop-opacity="1" stroke="#000000"/> 		</radialGradient> 	</defs> 	 	<rect id="_87BC9DEC-997D-4591-853F-35AE72FEA68Dtext_frame" oryx:anchors="bottom top right left" x="1" y="1" width="148" height="101" rx="10" ry="10" stroke="none" stroke-width="0" fill="none"/> 	<rect id="_87BC9DEC-997D-4591-853F-35AE72FEA68Dbg_frame" oryx:resize="vertical horizontal" x="0" y="0" width="154" height="102" rx="10" ry="10" stroke="#000000" stroke-width="1" fill="url(#_87BC9DEC-997D-4591-853F-35AE72FEA68Dbackground) #ffffcc"/> 		<text font-size="12" id="_87BC9DEC-997D-4591-853F-35AE72FEA68Dtext_name" x="77" y="51" oryx:align="middle center" oryx:fittoelem="text_frame" stroke="black" text-anchor="middle" stroke-width="0pt" letter-spacing="-0.01px" fill="#000000" transform="rotate(0 77 51)" visibility="inherit" oryx:fontSize="12"><tspan x="77" y="51" dy="5">Task</tspan></text>     <g id="_87BC9DEC-997D-4591-853F-35AE72FEA68DmanualTask" transform="scale(0.7,0.7) translate(8,8)" display="none">     	<path oryx:anchors="top left" id="_87BC9DEC-997D-4591-853F-35AE72FEA68Dframe" style="opacity:1;fill:none;fill-opacity:1;stroke-width:1" d="M0.5,3.751l4.083-3.25c0,0,11.166,0.083,12.083,0.083s-2.417,2.917-1.5,2.917     s11.667,0,12.584,0c1.166,1.708-0.168,3.167-0.834,3.667s0.875,1.917-1,4.417c-0.75,0.25,0.75,1.875-1.333,3.333     c-1.167,0.583,0.583,1.542-1.25,2.833c-1.167,0-20.833,0.083-20.833,0.083l-2-1.333V3.751z" stroke="#000000"/> 		<path id="_87BC9DEC-997D-4591-853F-35AE72FEA68Dframe2" oryx:anchors="top left" style="opacity:1;fill:none;stroke-width:2" d="M 13.5 7 L 27 7" stroke="#000000"/> 		<path id="_87BC9DEC-997D-4591-853F-35AE72FEA68Dframe3" oryx:anchors="top left" style="opacity:1;fill:none;stroke-width:2" d="M 13.5 11 L 26 11" stroke="#000000"/> 		<path id="_87BC9DEC-997D-4591-853F-35AE72FEA68Dframe4" oryx:anchors="top left" style="opacity:1;fill:none;stroke-width:1.5" d="M 14 14.5 L 25 14.5" stroke="#000000"/> 		<path id="_87BC9DEC-997D-4591-853F-35AE72FEA68Dframe5" oryx:anchors="top left" style="opacity:1;fill:none;stroke-width:1.5" d="M 8.2 3.1 L 15 3.1" stroke="#000000"/> 	</g> 	 	<g id="_87BC9DEC-997D-4591-853F-35AE72FEA68DbusinessRuleTask" transform="scale(0.7,0.7) translate(8,8)" display="none"> 		<rect id="_87BC9DEC-997D-4591-853F-35AE72FEA68Dframe6" oryx:anchors="top left" x="0" y="0" width="22" height="4" style="opacity:1;fill:#B3B1B3;fill-opacity:1;" stroke="#000000"/> 		<rect id="_87BC9DEC-997D-4591-853F-35AE72FEA68Dframe7" oryx:anchors="top left" x="0" y="4" style="opacity:1;fill:none;" width="22" height="12" stroke="#000000"/> 		<path id="_87BC9DEC-997D-4591-853F-35AE72FEA68Dframe8" oryx:anchors="top left" style="opacity:1;fill:none;" d="M 0 10 L 22 10" stroke="#000000"/> 		<path id="_87BC9DEC-997D-4591-853F-35AE72FEA68Dframe9" oryx:anchors="top left" style="opacity:1; fill:none;" d="M 7 4 L 7 16" stroke="#000000"/> 	</g> 	 	<g id="_87BC9DEC-997D-4591-853F-35AE72FEA68DscriptTask" transform="scale(0.7,0.7) translate(8,8)" display="inherit"> 		<path oryx:anchors="top left" id="_87BC9DEC-997D-4591-853F-35AE72FEA68Dframe10" style="opacity:1;fill:none;" stroke="#000000" d="M6.402,0.5h14.5c0,0-5.833,2.833-5.833,5.583s4.417,6,4.417,9.167    s-4.167,5.083-4.167,5.083H0.235c0,0,5-2.667,5-5s-4.583-6.75-4.583-9.25S6.402,0.5,6.402,0.5z"/> 		<path oryx:anchors="top left" id="_87BC9DEC-997D-4591-853F-35AE72FEA68Dframe11" style="opacity:1;fill:none;stroke-width:1.5" d="M 3.5 4.5 L 13.5 4.5" stroke="#000000"/> 		<path oryx:anchors="top left" id="_87BC9DEC-997D-4591-853F-35AE72FEA68Dframe12" style="opacity:1;fill:none;stroke-width:1.5" d="M 3.8 8.5 L 13.8 8.5" stroke="#000000"/> 		<path oryx:anchors="top left" id="_87BC9DEC-997D-4591-853F-35AE72FEA68Dframe13" style="opacity:1;fill:none;stroke-width:1.5" d="M 6.3 12.5 L 16.3 12.5" stroke="#000000"/> 		<path oryx:anchors="top left" id="_87BC9DEC-997D-4591-853F-35AE72FEA68Dframe14" style="opacity:1;fill:none;stroke-width:1.5" d="M 6.5 16.5 L 16.5 16.5" stroke="#000000"/> 	</g> 	 	<g id="_87BC9DEC-997D-4591-853F-35AE72FEA68DuserTask" transform="scale(0.7,0.7) translate(8,8)" display="none"> 		<path id="_87BC9DEC-997D-4591-853F-35AE72FEA68Dframe15" oryx:anchors="top left" style="opacity:1;fill:#F4F6F7" stroke="#000000" d="M0.585,24.167h24.083v-7.833c0,0-2.333-3.917-7.083-5.167h-9.25    c-4.417,1.333-7.833,5.75-7.833,5.75L0.585,24.167z"/> 		<path id="_87BC9DEC-997D-4591-853F-35AE72FEA68Dframe16" oryx:anchors="top left" style="opacity:1;fill:none" d="M 6 20 L 6 24" stroke="#000000"/> 		<path id="_87BC9DEC-997D-4591-853F-35AE72FEA68Dframe17" oryx:anchors="top left" style="opacity:1;fill:none" d="M 20 20 L 20 24" stroke="#000000"/> 		<circle id="_87BC9DEC-997D-4591-853F-35AE72FEA68Dframe18" oryx:anchors="top left" fill="black" cx="13.002" cy="5.916" r="5.417" stroke="#000000"/> 		<path id="_87BC9DEC-997D-4591-853F-35AE72FEA68Dframe19" oryx:anchors="top left" style="opacity:1;fill:#F0EFF0;" stroke="#000000" d="M8.043,7.083c0,0,2.814-2.426,5.376-1.807s4.624-0.693,4.624-0.693    c0.25,1.688,0.042,3.75-1.458,5.584c0,0,1.083,0.75,1.083,1.5s0.125,1.875-1,3s-5.5,1.25-6.75,0S8.668,12.834,8.668,12    s0.583-1.25,1.25-1.917C8.835,9.5,7.419,7.708,8.043,7.083z"/> 	</g> 	 	<g id="_87BC9DEC-997D-4591-853F-35AE72FEA68DserviceTask" transform="scale(0.7,0.7) translate(8,8)" display="none"> 		<polygon oryx:anchors="top left" id="_87BC9DEC-997D-4591-853F-35AE72FEA68Dframe20" style="opacity:1;fill:#ffffff" stroke="#000000" points="15.392,5.064 17.954,2.502 20.347,4.895 17.786,7.455     18.729,9.732 22.353,9.732 22.353,13.115 18.731,13.115 17.788,15.392 20.351,17.955 17.958,20.347 15.397,17.786 13.12,18.729     13.12,22.353 9.737,22.353 9.737,18.731 7.46,17.788 4.897,20.35 2.506,17.958 5.066,15.397 4.124,13.12 0.5,13.12 0.5,9.737     4.121,9.737 5.065,7.461 2.503,4.898 4.895,2.506 7.455,5.066 9.732,4.125 9.732,0.5 13.116,0.5 13.116,4.121 "/> 		<circle oryx:anchors="top left" id="_87BC9DEC-997D-4591-853F-35AE72FEA68Dframe21" style="opacity:1;fill:none" stroke="#000000" cx="11.427" cy="11.426" r="3.714"/> 		<polygon oryx:anchors="top left" id="_87BC9DEC-997D-4591-853F-35AE72FEA68Dframe22" style="opacity:1;fill:#ffffff" stroke="#000000" points="21.392,11.064 23.954,8.502 26.347,10.895 23.786,13.455     24.729,15.732 28.353,15.732 28.353,19.115 24.731,19.115 23.788,21.392 26.351,23.955 23.958,26.347 21.397,23.786 19.12,24.729     19.12,28.353 15.737,28.353 15.737,24.731 13.46,23.788 10.897,26.35 8.506,23.958 11.066,21.397 10.124,19.12 6.5,19.12     6.5,15.737 10.121,15.737 11.065,13.461 8.503,10.898 10.895,8.506 13.455,11.066 15.732,10.125 15.732,6.5 19.116,6.5     19.116,10.121 "/> 		<circle oryx:anchors="top left" id="_87BC9DEC-997D-4591-853F-35AE72FEA68Dframe23" style="opacity:1;fill:none;" stroke="#000000" cx="17.427" cy="17.426" r="3.714"/> 	</g> 	 	<g id="_87BC9DEC-997D-4591-853F-35AE72FEA68DsendTask" display="none"> 		<path id="_87BC9DEC-997D-4591-853F-35AE72FEA68Dstframe24" oryx:anchors="left top" stroke="#FFFFFF" fill="black" stroke-width="1" d="M8,11 L8,21 L24,21 L24,11 L16,17z"/> 		<path id="_87BC9DEC-997D-4591-853F-35AE72FEA68Dstframe25" oryx:anchors="left top" stroke="#FFFFFF" fill="black" stroke-width="1" d="M7,10 L16,17 L25 10z"/> 	</g> 	 	<g id="_87BC9DEC-997D-4591-853F-35AE72FEA68DreceiveTask" display="none"> 		<path id="_87BC9DEC-997D-4591-853F-35AE72FEA68Dframe26" oryx:anchors="left top" stroke="#000000" fill="none" stroke-width="1" d="M8,11 L8,21 L24,21 L24,11z M8,11 L16,17 L24,11"/> 	</g> 	 	<g id="_87BC9DEC-997D-4591-853F-35AE72FEA68Dnone" display="inherit"/>  	<g id="_87BC9DEC-997D-4591-853F-35AE72FEA68Dsequential" display="none">         <path oryx:anchors="bottom" fill="none" stroke="#000000" stroke-width="2" d=" M73.54 98  h10  M73.54 94  h10  M73.54 90  h10 " id="_87BC9DEC-997D-4591-853F-35AE72FEA68D__87BC9DEC-997D-4591-853F-35AE72FEA68D_20"/>     </g>   </g></g><g class="children" style="overflow:hidden"/><g class="edge"/></g><g class="controls"><g class="dockers"/><g class="magnets" transform="translate(461, 220)"><g pointer-events="all" display="none" transform="translate(-7, 17.5)"><circle cx="8" cy="8" r="4" stroke="none" fill="red" fill-opacity="0.3"/></g><g pointer-events="all" display="none" transform="translate(-7, 43)"><circle cx="8" cy="8" r="4" stroke="none" fill="red" fill-opacity="0.3"/></g><g pointer-events="all" display="none" transform="translate(-7, 68.5)"><circle cx="8" cy="8" r="4" stroke="none" fill="red" fill-opacity="0.3"/></g><g pointer-events="all" display="none" transform="translate(30.5, 93)"><circle cx="8" cy="8" r="4" stroke="none" fill="red" fill-opacity="0.3"/></g><g pointer-events="all" display="none" transform="translate(69, 93)"><circle cx="8" cy="8" r="4" stroke="none" fill="red" fill-opacity="0.3"/></g><g pointer-events="all" display="none" transform="translate(107.5, 93)"><circle cx="8" cy="8" r="4" stroke="none" fill="red" fill-opacity="0.3"/></g><g pointer-events="all" display="none" transform="translate(145, 17.5)"><circle cx="8" cy="8" r="4" stroke="none" fill="red" fill-opacity="0.3"/></g><g pointer-events="all" display="none" transform="translate(145, 43)"><circle cx="8" cy="8" r="4" stroke="none" fill="red" fill-opacity="0.3"/></g><g pointer-events="all" display="none" transform="translate(145, 68.5)"><circle cx="8" cy="8" r="4" stroke="none" fill="red" fill-opacity="0.3"/></g><g pointer-events="all" display="none" transform="translate(30.5, -7)"><circle cx="8" cy="8" r="4" stroke="none" fill="red" fill-opacity="0.3"/></g><g pointer-events="all" display="none" transform="translate(69, -7)"><circle cx="8" cy="8" r="4" stroke="none" fill="red" fill-opacity="0.3"/></g><g pointer-events="all" display="none" transform="translate(107.5, -7)"><circle cx="8" cy="8" r="4" stroke="none" fill="red" fill-opacity="0.3"/></g><g pointer-events="all" display="none" transform="translate(69, 43)"><circle cx="8" cy="8" r="4" stroke="none" fill="red" fill-opacity="0.3"/></g></g></g></g><g id="_38C450CA-A741-4F95-9FB7-8F162AA2E318" bpmn2nodeid="_EE758BA1-C65A-4BF8-9B84-D9A5B28B8291"><g class="stencils" transform="translate(695, 243)"><g class="me"><g pointer-events="fill" id="_38C450CA-A741-4F95-9FB7-8F162AA2E318">      <defs id="_38C450CA-A741-4F95-9FB7-8F162AA2E318__38C450CA-A741-4F95-9FB7-8F162AA2E318_5"> 		<radialGradient id="_38C450CA-A741-4F95-9FB7-8F162AA2E318background" cx="10%" cy="10%" r="100%" fx="10%" fy="10%"> 			<stop offset="0%" stop-color="#ffffff" stop-opacity="1" id="_38C450CA-A741-4F95-9FB7-8F162AA2E318__38C450CA-A741-4F95-9FB7-8F162AA2E318_6"/> 			<stop id="_38C450CA-A741-4F95-9FB7-8F162AA2E318fill_el" offset="100%" stop-color="#ff6347" stop-opacity="1"/> 		</radialGradient> 	</defs> 	     <circle id="_38C450CA-A741-4F95-9FB7-8F162AA2E318bg_frame" cx="14" cy="14" r="14" stroke="#000000" fill="url(#_38C450CA-A741-4F95-9FB7-8F162AA2E318background) white" stroke-width="3"/> 	<text font-size="11" id="_38C450CA-A741-4F95-9FB7-8F162AA2E318text_name" x="14" y="30" oryx:align="top center" stroke="black" stroke-width="0pt" letter-spacing="-0.01px" fill="#000000" text-anchor="middle" transform="rotate(0 14 30)" visibility="inherit" oryx:fontSize="11"/>   </g></g><g class="children" style="overflow:hidden"/><g class="edge"/></g><g class="controls"><g class="dockers"/><g class="magnets" transform="translate(695, 243)"><g pointer-events="all" display="none" transform="translate(6, 6)"><circle cx="8" cy="8" r="4" stroke="none" fill="red" fill-opacity="0.3"/></g></g></g></g></g><g class="edge"><g id="_12E3B023-9D7A-47EB-A839-B300BEFA18DE" bpmn2nodeid="_FD95C04B-EF00-4EB5-BF4F-93E55E56F01C"><g class="stencils"><g class="me"><g pointer-events="painted" bpmn2nodeid="_B1CE4438-F3FA-405F-9DE3-FF9DB0453F7D"><path id="_12E3B023-9D7A-47EB-A839-B300BEFA18DE_1" d="M355.6931640513278 259.03035925589523L460.4318359486722 265.90714074410477 " stroke="#000000" fill="none" stroke-width="2" stroke-linecap="round" stroke-linejoin="round" marker-start="url(#_12E3B023-9D7A-47EB-A839-B300BEFA18DEstart)" marker-end="url(#_12E3B023-9D7A-47EB-A839-B300BEFA18DEend)"/></g><text id="_12E3B023-9D7A-47EB-A839-B300BEFA18DEtext_name" font-size="12" x="369.6931640513278" y="245.03035925589523" oryx:edgePosition="startTop" stroke-width="0pt" letter-spacing="-0.01px" fill="#000000" text-anchor="start" transform="rotate(3.7564525478040878 355.6931640513278 259.03035925589523)" visibility="inherit" oryx:fontSize="12"/></g><g class="children" style="overflow:hidden"/><g class="edge"/></g><g class="controls"><g class="dockers"/><g class="magnets"/></g></g><g id="_8F756040-06DE-4CDD-AA4C-FBB189A3E610" bpmn2nodeid="_4EF40DD4-091C-4CF1-9AAE-6CF1925766F3"><g class="stencils"><g class="me"><g pointer-events="painted" bpmn2nodeid="_41D81554-E99A-4BAE-A12E-8BF4F417A063"><path id="_8F756040-06DE-4CDD-AA4C-FBB189A3E610_1" d="M615.1451027962808 264.6840266716495L694.6439597037192 258.1753483283505 " stroke="#000000" fill="none" stroke-width="2" stroke-linecap="round" stroke-linejoin="round" marker-start="url(#_8F756040-06DE-4CDD-AA4C-FBB189A3E610start)" marker-end="url(#_8F756040-06DE-4CDD-AA4C-FBB189A3E610end)"/></g><text id="_8F756040-06DE-4CDD-AA4C-FBB189A3E610text_name" font-size="12" x="629.1451027962808" y="250.68402667164952" oryx:edgePosition="startTop" stroke-width="0pt" letter-spacing="-0.01px" fill="#000000" text-anchor="start" transform="rotate(355.3195563817467 615.1451027962808 264.6840266716495)" visibility="inherit" oryx:fontSize="12"/></g><g class="children" style="overflow:hidden"/><g class="edge"/></g><g class="controls"><g class="dockers"/><g class="magnets"/></g></g></g><text id="_0252D9B5-D983-4CD0-AA9C-7BEFDB3CC1B8" style="stroke-width:1;fill:rgb(177,194,214);font-family:arial;font-weight:bold" font-size="12" onclick="ORYX.Plugins.CanvasTitle.openTextualAnalysis()" onmouseover="ORYX.Plugins.CanvasTitle.addToolTip('_0252D9B5-D983-4CD0-AA9C-7BEFDB3CC1B8')" transform="translate(10, 20)">WebServiceTest v.1.0 (Imports.WebServiceTest)</text></g></g></svg>