<svg xmlns="http://www.w3.org/2000/svg" xmlns:oryx="http://oryx-editor.org" id="_0C05209F-AE2C-4F07-A1DD-2FEFAF977F2A" width="408" height="261" xmlns:xlink="http://www.w3.org/1999/xlink" xmlns:svg="http://www.w3.org/2000/svg"><defs><marker id="_A332892D-94EF-415C-8283-33970E03F293start" refX="1" refY="5" markerUnits="userSpaceOnUse" markerWidth="17" markerHeight="11" orient="auto" fill="#000000" stroke="#000000"> 	  		<path id="_A332892D-94EF-415C-8283-33970E03F293conditional" d="M 0 5 L 8 0 L 16 5 L 8 10 L 0 5" fill="white" stroke="#000000" stroke-width="1" display="none"/> 			<path id="_A332892D-94EF-415C-8283-33970E03F293default" d="M 5 0 L 11 10" fill="white" stroke="#000000" stroke-width="1" display="none"/> 	  	</marker><marker id="_A332892D-94EF-415C-8283-33970E03F293end" refX="15" refY="6" markerUnits="userSpaceOnUse" markerWidth="15" markerHeight="12" orient="auto" fill="#000000" stroke="#000000"> 	  		<path id="_A332892D-94EF-415C-8283-33970E03F293frame2" d="M 0 1 L 15 6 L 0 11z" fill="#000000" stroke="#000000" stroke-linejoin="round" stroke-width="2"/> 	  	</marker><marker id="_3058CD6D-CBA4-48F7-8C1F-9E0873C74231start" refX="1" refY="5" markerUnits="userSpaceOnUse" markerWidth="17" markerHeight="11" orient="auto" fill="#000000" stroke="#000000"> 	  		<path id="_3058CD6D-CBA4-48F7-8C1F-9E0873C74231conditional" d="M 0 5 L 8 0 L 16 5 L 8 10 L 0 5" fill="white" stroke="#000000" stroke-width="1" display="none"/> 			<path id="_3058CD6D-CBA4-48F7-8C1F-9E0873C74231default" d="M 5 0 L 11 10" fill="white" stroke="#000000" stroke-width="1" display="none"/> 	  	</marker><marker id="_3058CD6D-CBA4-48F7-8C1F-9E0873C74231end" refX="15" refY="6" markerUnits="userSpaceOnUse" markerWidth="15" markerHeight="12" orient="auto" fill="#000000" stroke="#000000"> 	  		<path id="_3058CD6D-CBA4-48F7-8C1F-9E0873C74231frame2" d="M 0 1 L 15 6 L 0 11z" fill="#000000" stroke="#000000" stroke-linejoin="round" stroke-width="2"/> 	  	</marker></defs><g stroke="none" font-family="Verdana, sans-serif" font-size-adjust="none" font-style="normal" font-variant="normal" font-weight="normal" line-heigth="normal" font-size="12"><g class="stencils" transform="translate(15, 16)"><g class="me"/><g class="children"><g id="_A62D0E1C-3D34-4234-9C9D-A8249C29F16B" bpmn2nodeid="processStartEvent"><g class="stencils" transform="translate(120, 165)"><g class="me"><g pointer-events="fill" id="_A62D0E1C-3D34-4234-9C9D-A8249C29F16B">        <defs id="_A62D0E1C-3D34-4234-9C9D-A8249C29F16B__A62D0E1C-3D34-4234-9C9D-A8249C29F16B_5"> 		<radialGradient id="_A62D0E1C-3D34-4234-9C9D-A8249C29F16Bbackground" cx="10%" cy="10%" r="100%" fx="10%" fy="10%"> 			<stop offset="0%" stop-color="#ffffff" stop-opacity="1" id="_A62D0E1C-3D34-4234-9C9D-A8249C29F16B__A62D0E1C-3D34-4234-9C9D-A8249C29F16B_6"/> 			<stop id="_A62D0E1C-3D34-4234-9C9D-A8249C29F16Bfill_el" offset="100%" stop-color="#9acd32" stop-opacity="1"/> 		</radialGradient> 	</defs> 	     <circle id="_A62D0E1C-3D34-4234-9C9D-A8249C29F16Bbg_frame" cx="15" cy="15" r="15" stroke="#000000" fill="url(#_A62D0E1C-3D34-4234-9C9D-A8249C29F16Bbackground) white" stroke-width="1" style="stroke-dasharray: 5.5, 3"/>      <circle id="_A62D0E1C-3D34-4234-9C9D-A8249C29F16Bframe" cx="15" cy="15" r="15" stroke="#000000" fill="none" stroke-width="1" display="inherit"/>  	<text font-size="11" id="_A62D0E1C-3D34-4234-9C9D-A8249C29F16Btext_name" x="15" y="32" oryx:align="top center" stroke="black" stroke-width="0pt" letter-spacing="-0.01px" fill="#000000" text-anchor="middle" transform="rotate(0 15 32)" visibility="inherit" oryx:fontSize="11"/>   </g></g><g class="children" style="overflow:hidden"/><g class="edge"/></g><g class="controls"><g class="dockers"/><g class="magnets" transform="translate(120, 165)"><g pointer-events="all" display="none" transform="translate(7, 7)"><circle cx="8" cy="8" r="4" stroke="none" fill="red" fill-opacity="0.3"/></g></g></g></g><g id="_46E13208-D1D7-4590-B0C8-8AEC03A23962" bpmn2nodeid="_122CCC58-F31D-41C0-8FDC-22810D2564B8"><g class="stencils" transform="translate(195, 140)"><g class="me"><g pointer-events="fill" oryx:minimumSize="50 40" id="_46E13208-D1D7-4590-B0C8-8AEC03A23962">   	<defs id="_46E13208-D1D7-4590-B0C8-8AEC03A23962__46E13208-D1D7-4590-B0C8-8AEC03A23962_17"> 		<radialGradient id="_46E13208-D1D7-4590-B0C8-8AEC03A23962background" cx="10%" cy="10%" r="100%" fx="10%" fy="10%"> 			<stop offset="0%" stop-color="#ffffff" stop-opacity="1" id="_46E13208-D1D7-4590-B0C8-8AEC03A23962__46E13208-D1D7-4590-B0C8-8AEC03A23962_18"/> 			<stop id="_46E13208-D1D7-4590-B0C8-8AEC03A23962fill_el" offset="100%" stop-color="#fafad2" stop-opacity="1"/> 		</radialGradient> 		<radialGradient id="_46E13208-D1D7-4590-B0C8-8AEC03A23962borderbackground" cx="10%" cy="10%" r="100%" fx="10%" fy="10%"> 			<stop offset="0%" stop-color="#ffffff" stop-opacity="1" id="_46E13208-D1D7-4590-B0C8-8AEC03A23962__46E13208-D1D7-4590-B0C8-8AEC03A23962_19"/> 			<stop id="_46E13208-D1D7-4590-B0C8-8AEC03A23962fill_border" offset="100%" stop-color="#000000" stop-opacity="1" stroke="#000000"/> 		</radialGradient> 	</defs> 	 	<rect id="_46E13208-D1D7-4590-B0C8-8AEC03A23962text_frame" oryx:anchors="bottom top right left" x="1" y="1" width="94" height="79" rx="10" ry="10" stroke="none" stroke-width="0" fill="none"/> 	<rect id="_46E13208-D1D7-4590-B0C8-8AEC03A23962bg_frame" oryx:resize="vertical horizontal" x="0" y="0" width="100" height="80" rx="10" ry="10" stroke="#000000" stroke-width="1" fill="url(#_46E13208-D1D7-4590-B0C8-8AEC03A23962background) #ffffcc"/> 		<text font-size="12" id="_46E13208-D1D7-4590-B0C8-8AEC03A23962text_name" x="50" y="40" oryx:align="middle center" oryx:fittoelem="text_frame" stroke="black" text-anchor="middle" stroke-width="0pt" letter-spacing="-0.01px" fill="#000000" transform="rotate(0 50 40)" visibility="inherit" oryx:fontSize="12"/>     <g id="_46E13208-D1D7-4590-B0C8-8AEC03A23962manualTask" transform="scale(0.7,0.7) translate(8,8)" display="none">     	<path oryx:anchors="top left" id="_46E13208-D1D7-4590-B0C8-8AEC03A23962frame" style="opacity:1;fill:none;fill-opacity:1;stroke-width:1" d="M0.5,3.751l4.083-3.25c0,0,11.166,0.083,12.083,0.083s-2.417,2.917-1.5,2.917     s11.667,0,12.584,0c1.166,1.708-0.168,3.167-0.834,3.667s0.875,1.917-1,4.417c-0.75,0.25,0.75,1.875-1.333,3.333     c-1.167,0.583,0.583,1.542-1.25,2.833c-1.167,0-20.833,0.083-20.833,0.083l-2-1.333V3.751z" stroke="#000000"/> 		<path id="_46E13208-D1D7-4590-B0C8-8AEC03A23962frame2" oryx:anchors="top left" style="opacity:1;fill:none;stroke-width:2" d="M 13.5 7 L 27 7" stroke="#000000"/> 		<path id="_46E13208-D1D7-4590-B0C8-8AEC03A23962frame3" oryx:anchors="top left" style="opacity:1;fill:none;stroke-width:2" d="M 13.5 11 L 26 11" stroke="#000000"/> 		<path id="_46E13208-D1D7-4590-B0C8-8AEC03A23962frame4" oryx:anchors="top left" style="opacity:1;fill:none;stroke-width:1.5" d="M 14 14.5 L 25 14.5" stroke="#000000"/> 		<path id="_46E13208-D1D7-4590-B0C8-8AEC03A23962frame5" oryx:anchors="top left" style="opacity:1;fill:none;stroke-width:1.5" d="M 8.2 3.1 L 15 3.1" stroke="#000000"/> 	</g> 	 	<g id="_46E13208-D1D7-4590-B0C8-8AEC03A23962businessRuleTask" transform="scale(0.7,0.7) translate(8,8)" display="none"> 		<rect id="_46E13208-D1D7-4590-B0C8-8AEC03A23962frame6" oryx:anchors="top left" x="0" y="0" width="22" height="4" style="opacity:1;fill:#B3B1B3;fill-opacity:1;" stroke="#000000"/> 		<rect id="_46E13208-D1D7-4590-B0C8-8AEC03A23962frame7" oryx:anchors="top left" x="0" y="4" style="opacity:1;fill:none;" width="22" height="12" stroke="#000000"/> 		<path id="_46E13208-D1D7-4590-B0C8-8AEC03A23962frame8" oryx:anchors="top left" style="opacity:1;fill:none;" d="M 0 10 L 22 10" stroke="#000000"/> 		<path id="_46E13208-D1D7-4590-B0C8-8AEC03A23962frame9" oryx:anchors="top left" style="opacity:1; fill:none;" d="M 7 4 L 7 16" stroke="#000000"/> 	</g> 	 	<g id="_46E13208-D1D7-4590-B0C8-8AEC03A23962scriptTask" transform="scale(0.7,0.7) translate(8,8)" display="inherit"> 		<path oryx:anchors="top left" id="_46E13208-D1D7-4590-B0C8-8AEC03A23962frame10" style="opacity:1;fill:none;" stroke="#000000" d="M6.402,0.5h14.5c0,0-5.833,2.833-5.833,5.583s4.417,6,4.417,9.167    s-4.167,5.083-4.167,5.083H0.235c0,0,5-2.667,5-5s-4.583-6.75-4.583-9.25S6.402,0.5,6.402,0.5z"/> 		<path oryx:anchors="top left" id="_46E13208-D1D7-4590-B0C8-8AEC03A23962frame11" style="opacity:1;fill:none;stroke-width:1.5" d="M 3.5 4.5 L 13.5 4.5" stroke="#000000"/> 		<path oryx:anchors="top left" id="_46E13208-D1D7-4590-B0C8-8AEC03A23962frame12" style="opacity:1;fill:none;stroke-width:1.5" d="M 3.8 8.5 L 13.8 8.5" stroke="#000000"/> 		<path oryx:anchors="top left" id="_46E13208-D1D7-4590-B0C8-8AEC03A23962frame13" style="opacity:1;fill:none;stroke-width:1.5" d="M 6.3 12.5 L 16.3 12.5" stroke="#000000"/> 		<path oryx:anchors="top left" id="_46E13208-D1D7-4590-B0C8-8AEC03A23962frame14" style="opacity:1;fill:none;stroke-width:1.5" d="M 6.5 16.5 L 16.5 16.5" stroke="#000000"/> 	</g> 	 	<g id="_46E13208-D1D7-4590-B0C8-8AEC03A23962userTask" transform="scale(0.7,0.7) translate(8,8)" display="none"> 		<path id="_46E13208-D1D7-4590-B0C8-8AEC03A23962frame15" oryx:anchors="top left" style="opacity:1;fill:#F4F6F7" stroke="#000000" d="M0.585,24.167h24.083v-7.833c0,0-2.333-3.917-7.083-5.167h-9.25    c-4.417,1.333-7.833,5.75-7.833,5.75L0.585,24.167z"/> 		<path id="_46E13208-D1D7-4590-B0C8-8AEC03A23962frame16" oryx:anchors="top left" style="opacity:1;fill:none" d="M 6 20 L 6 24" stroke="#000000"/> 		<path id="_46E13208-D1D7-4590-B0C8-8AEC03A23962frame17" oryx:anchors="top left" style="opacity:1;fill:none" d="M 20 20 L 20 24" stroke="#000000"/> 		<circle id="_46E13208-D1D7-4590-B0C8-8AEC03A23962frame18" oryx:anchors="top left" fill="black" cx="13.002" cy="5.916" r="5.417" stroke="#000000"/> 		<path id="_46E13208-D1D7-4590-B0C8-8AEC03A23962frame19" oryx:anchors="top left" style="opacity:1;fill:#F0EFF0;" stroke="#000000" d="M8.043,7.083c0,0,2.814-2.426,5.376-1.807s4.624-0.693,4.624-0.693    c0.25,1.688,0.042,3.75-1.458,5.584c0,0,1.083,0.75,1.083,1.5s0.125,1.875-1,3s-5.5,1.25-6.75,0S8.668,12.834,8.668,12    s0.583-1.25,1.25-1.917C8.835,9.5,7.419,7.708,8.043,7.083z"/> 	</g> 	 	<g id="_46E13208-D1D7-4590-B0C8-8AEC03A23962serviceTask" transform="scale(0.7,0.7) translate(8,8)" display="none"> 		<polygon oryx:anchors="top left" id="_46E13208-D1D7-4590-B0C8-8AEC03A23962frame20" style="opacity:1;fill:#ffffff" stroke="#000000" points="15.392,5.064 17.954,2.502 20.347,4.895 17.786,7.455     18.729,9.732 22.353,9.732 22.353,13.115 18.731,13.115 17.788,15.392 20.351,17.955 17.958,20.347 15.397,17.786 13.12,18.729     13.12,22.353 9.737,22.353 9.737,18.731 7.46,17.788 4.897,20.35 2.506,17.958 5.066,15.397 4.124,13.12 0.5,13.12 0.5,9.737     4.121,9.737 5.065,7.461 2.503,4.898 4.895,2.506 7.455,5.066 9.732,4.125 9.732,0.5 13.116,0.5 13.116,4.121 "/> 		<circle oryx:anchors="top left" id="_46E13208-D1D7-4590-B0C8-8AEC03A23962frame21" style="opacity:1;fill:none" stroke="#000000" cx="11.427" cy="11.426" r="3.714"/> 		<polygon oryx:anchors="top left" id="_46E13208-D1D7-4590-B0C8-8AEC03A23962frame22" style="opacity:1;fill:#ffffff" stroke="#000000" points="21.392,11.064 23.954,8.502 26.347,10.895 23.786,13.455     24.729,15.732 28.353,15.732 28.353,19.115 24.731,19.115 23.788,21.392 26.351,23.955 23.958,26.347 21.397,23.786 19.12,24.729     19.12,28.353 15.737,28.353 15.737,24.731 13.46,23.788 10.897,26.35 8.506,23.958 11.066,21.397 10.124,19.12 6.5,19.12     6.5,15.737 10.121,15.737 11.065,13.461 8.503,10.898 10.895,8.506 13.455,11.066 15.732,10.125 15.732,6.5 19.116,6.5     19.116,10.121 "/> 		<circle oryx:anchors="top left" id="_46E13208-D1D7-4590-B0C8-8AEC03A23962frame23" style="opacity:1;fill:none;" stroke="#000000" cx="17.427" cy="17.426" r="3.714"/> 	</g> 	 	<g id="_46E13208-D1D7-4590-B0C8-8AEC03A23962sendTask" display="none"> 		<path id="_46E13208-D1D7-4590-B0C8-8AEC03A23962stframe24" oryx:anchors="left top" stroke="#FFFFFF" fill="black" stroke-width="1" d="M8,11 L8,21 L24,21 L24,11 L16,17z"/> 		<path id="_46E13208-D1D7-4590-B0C8-8AEC03A23962stframe25" oryx:anchors="left top" stroke="#FFFFFF" fill="black" stroke-width="1" d="M7,10 L16,17 L25 10z"/> 	</g> 	 	<g id="_46E13208-D1D7-4590-B0C8-8AEC03A23962receiveTask" display="none"> 		<path id="_46E13208-D1D7-4590-B0C8-8AEC03A23962frame26" oryx:anchors="left top" stroke="#000000" fill="none" stroke-width="1" d="M8,11 L8,21 L24,21 L24,11z M8,11 L16,17 L24,11"/> 	</g> 	 	<g id="_46E13208-D1D7-4590-B0C8-8AEC03A23962none" display="inherit"/>  	<g id="_46E13208-D1D7-4590-B0C8-8AEC03A23962sequential" display="none">         <path oryx:anchors="bottom" fill="none" stroke="#000000" stroke-width="2" d="M46,76h10M46,72h10 M46,68h10" id="_46E13208-D1D7-4590-B0C8-8AEC03A23962__46E13208-D1D7-4590-B0C8-8AEC03A23962_20"/>     </g>   </g></g><g class="children" style="overflow:hidden"/><g class="edge"/></g><g class="controls"><g class="dockers"/><g class="magnets" transform="translate(195, 140)"><g pointer-events="all" display="none" transform="translate(-7, 12)"><circle cx="8" cy="8" r="4" stroke="none" fill="red" fill-opacity="0.3"/></g><g pointer-events="all" display="none" transform="translate(-7, 32)"><circle cx="8" cy="8" r="4" stroke="none" fill="red" fill-opacity="0.3"/></g><g pointer-events="all" display="none" transform="translate(-7, 52)"><circle cx="8" cy="8" r="4" stroke="none" fill="red" fill-opacity="0.3"/></g><g pointer-events="all" display="none" transform="translate(17, 71)"><circle cx="8" cy="8" r="4" stroke="none" fill="red" fill-opacity="0.3"/></g><g pointer-events="all" display="none" transform="translate(42, 71)"><circle cx="8" cy="8" r="4" stroke="none" fill="red" fill-opacity="0.3"/></g><g pointer-events="all" display="none" transform="translate(67, 71)"><circle cx="8" cy="8" r="4" stroke="none" fill="red" fill-opacity="0.3"/></g><g pointer-events="all" display="none" transform="translate(91, 12)"><circle cx="8" cy="8" r="4" stroke="none" fill="red" fill-opacity="0.3"/></g><g pointer-events="all" display="none" transform="translate(91, 32)"><circle cx="8" cy="8" r="4" stroke="none" fill="red" fill-opacity="0.3"/></g><g pointer-events="all" display="none" transform="translate(91, 52)"><circle cx="8" cy="8" r="4" stroke="none" fill="red" fill-opacity="0.3"/></g><g pointer-events="all" display="none" transform="translate(17, -7)"><circle cx="8" cy="8" r="4" stroke="none" fill="red" fill-opacity="0.3"/></g><g pointer-events="all" display="none" transform="translate(42, -7)"><circle cx="8" cy="8" r="4" stroke="none" fill="red" fill-opacity="0.3"/></g><g pointer-events="all" display="none" transform="translate(67, -7)"><circle cx="8" cy="8" r="4" stroke="none" fill="red" fill-opacity="0.3"/></g><g pointer-events="all" display="none" transform="translate(42, 32)"><circle cx="8" cy="8" r="4" stroke="none" fill="red" fill-opacity="0.3"/></g></g></g></g><g id="_AB7B2D7D-E09B-4652-95F0-EB78DECA7EA8" bpmn2nodeid="_27D9B0AE-8962-4FFA-8B9D-42F4063F65D8"><g class="stencils" transform="translate(340, 166)"><g class="me"><g pointer-events="fill" id="_AB7B2D7D-E09B-4652-95F0-EB78DECA7EA8">      <defs id="_AB7B2D7D-E09B-4652-95F0-EB78DECA7EA8__AB7B2D7D-E09B-4652-95F0-EB78DECA7EA8_5"> 		<radialGradient id="_AB7B2D7D-E09B-4652-95F0-EB78DECA7EA8background" cx="10%" cy="10%" r="100%" fx="10%" fy="10%"> 			<stop offset="0%" stop-color="#ffffff" stop-opacity="1" id="_AB7B2D7D-E09B-4652-95F0-EB78DECA7EA8__AB7B2D7D-E09B-4652-95F0-EB78DECA7EA8_6"/> 			<stop id="_AB7B2D7D-E09B-4652-95F0-EB78DECA7EA8fill_el" offset="100%" stop-color="#ff6347" stop-opacity="1"/> 		</radialGradient> 	</defs> 	     <circle id="_AB7B2D7D-E09B-4652-95F0-EB78DECA7EA8bg_frame" cx="14" cy="14" r="14" stroke="#000000" fill="url(#_AB7B2D7D-E09B-4652-95F0-EB78DECA7EA8background) white" stroke-width="3"/> 	<text font-size="11" id="_AB7B2D7D-E09B-4652-95F0-EB78DECA7EA8text_name" x="14" y="30" oryx:align="top center" stroke="black" stroke-width="0pt" letter-spacing="-0.01px" fill="#000000" text-anchor="middle" transform="rotate(0 14 30)" visibility="inherit" oryx:fontSize="11"/>   </g></g><g class="children" style="overflow:hidden"/><g class="edge"/></g><g class="controls"><g class="dockers"/><g class="magnets" transform="translate(340, 166)"><g pointer-events="all" display="none" transform="translate(6, 6)"><circle cx="8" cy="8" r="4" stroke="none" fill="red" fill-opacity="0.3"/></g></g></g></g></g><g class="edge"><g id="_A332892D-94EF-415C-8283-33970E03F293" bpmn2nodeid="_E7D79037-F3BC-4574-A86F-EEDEE8DB54B0"><g class="stencils"><g class="me"><g pointer-events="painted" bpmn2nodeid="_D3DEDC7A-5773-4009-9796-0880D589F728"><path id="_A332892D-94EF-415C-8283-33970E03F293_1" d="M150.609375 180L194.15625 180 " stroke="#000000" fill="none" stroke-width="2" stroke-linecap="round" stroke-linejoin="round" marker-start="url(#_A332892D-94EF-415C-8283-33970E03F293start)" marker-end="url(#_A332892D-94EF-415C-8283-33970E03F293end)"/></g><text id="_A332892D-94EF-415C-8283-33970E03F293text_name" font-size="12" x="164.609375" y="166" oryx:edgePosition="startTop" stroke-width="0pt" letter-spacing="-0.01px" fill="#000000" text-anchor="start" transform="rotate(360 150.609375 180)" visibility="inherit" oryx:fontSize="12"/></g><g class="children" style="overflow:hidden"/><g class="edge"/></g><g class="controls"><g class="dockers"/><g class="magnets"/></g></g><g id="_3058CD6D-CBA4-48F7-8C1F-9E0873C74231" bpmn2nodeid="_92180786-2C8F-4838-9E9D-E210970715AF"><g class="stencils"><g class="me"><g pointer-events="painted" bpmn2nodeid="_C9D69018-0E67-49DF-8F20-34AEAADBABDC"><path id="_3058CD6D-CBA4-48F7-8C1F-9E0873C74231_1" d="M295.390625 180L339.375 180 " stroke="#000000" fill="none" stroke-width="2" stroke-linecap="round" stroke-linejoin="round" marker-start="url(#_3058CD6D-CBA4-48F7-8C1F-9E0873C74231start)" marker-end="url(#_3058CD6D-CBA4-48F7-8C1F-9E0873C74231end)"/></g><text id="_3058CD6D-CBA4-48F7-8C1F-9E0873C74231text_name" font-size="12" x="309.390625" y="166" oryx:edgePosition="startTop" stroke-width="0pt" letter-spacing="-0.01px" fill="#000000" text-anchor="start" transform="rotate(360 295.390625 180)" visibility="inherit" oryx:fontSize="12"/></g><g class="children" style="overflow:hidden"/><g class="edge"/></g><g class="controls"><g class="dockers"/><g class="magnets"/></g></g></g><text id="_99B73CE3-E242-47E4-BF9F-7638A2136D1E" style="stroke-width:1;fill:rgb(177,194,214);font-family:arial;font-weight:bold" font-size="12" onclick="ORYX.Plugins.CanvasTitle.openTextualAnalysis()" onmouseover="ORYX.Plugins.CanvasTitle.addToolTip('_99B73CE3-E242-47E4-BF9F-7638A2136D1E')" transform="translate(10, 20)">HelloDifferentPackage v.1.0 (com.HelloDifferentPackage)</text></g></g></svg>